{"title":"Gallipoli TV MINI SERIES (2015) The First Day 1080P WEB-DL","uid":11696015,"size":3344590577,"categoryP":"video","categoryS":"hd___tv_shows","magnet":"?xt=urn:btih:4e9ce2ca6a0f4211b8898751f0964b75b92c059d&amp;dn=Gallipoli+TV+MINI+SERIES+%282015%29+The+First+Day+1080P+WEB-DL&amp;tr=udp%3A%2F%2Ftracker.openbittorrent.com%3A80&amp;tr=udp%3A%2F%2Fopen.demonii.com%3A1337&amp;tr=udp%3A%2F%2Ftracker.coppersurfer.tk%3A6969&amp;tr=udp%3A%2F%2Fexodus.desync.com%3A6969","seeders":9,"leechers":0,"uploader":"jmanwf","files":2,"time":1423715309,"description":"As dawn breaks on April 25, 1915, seventeen-year-old Thomas &quot;Tolly&quot; Johnson and his brother Bevan are thrust into a chaotic, confusing battle for the Turkish heights when they land on the Gallipoli peninsula. They discover what it is to kill and to fear being killed. The landing proves to be a disaster, triggering an eight-month stalemate where thousands will lose their lives.\n\nID : 2\nFormat : AVC\nFormat/Info : Advanced Video Codec\nFormat profile : &lt;a class=&quot;__cf_email__&quot; href=&quot;/cdn-cgi/l/email-protection&quot; data-cfemail=&quot;7b33121c133b374f554b&quot;&gt;[email&amp;#160;protected]&lt;/a&gt;&lt;script cf-hash='f9e31' type=&quot;text/javascript&quot;&gt;\n/* &lt;![CDATA[ */!function(){try{var t=&quot;currentScript&quot;in document?document.currentScript:function(){for(var t=document.getElementsByTagName(&quot;script&quot;),e=t.length;e--;)if(t[e].getAttribute(&quot;cf-hash&quot;))return t[e]}();if(t&amp;&amp;t.previousSibling){var e,r,n,i,c=t.previousSibling,a=c.getAttribute(&quot;data-cfemail&quot;);if(a){for(e=&quot;&quot;,r=parseInt(a.substr(0,2),16),n=2;a.length-n;n+=2)i=parseInt(a.substr(n,2),16)^r,e+=String.fromCharCode(i);e=document.createTextNode(e),c.parentNode.replaceChild(e,c)}}}catch(u){}}();/* ]]&gt; */&lt;/script&gt;\nFormat settings, CABAC : Yes\nFormat settings, ReFrames : 4 frames\nCodec ID : avc1\nCodec ID/Info : Advanced Video Coding\nDuration : 1h 17mn\nBit rate : 5 278 Kbps\nWidth : 1 912 pixels\nHeight : 1 072 pixels\nDisplay aspect ratio : 16:9\nFrame rate mode : Constant\nFrame rate : 25.000 fps\nColor space : YUV\nChroma subsampling : 4:2:0\nBit depth : 8 bits\nScan type : Progressive\nBits/(Pixel*Frame) : 0.103\nStream size : 2.84 GiB (91%)\nLanguage : English\nEncoded date : UTC 2015-02-11 03:41:44\nTagged date : UTC 2015-02-11 03:47:38\nColor primaries : BT.709\nTransfer characteristics : BT.709\nMatrix coefficients : BT.709\nColor range : Limited\n\nAudio #1\nID : 1\nFormat : AAC\nFormat/Info : Advanced Audio Codec\nFormat profile : LC\nCodec ID : 40\nDuration : 1h 17mn\nDuration_LastFrame : -15ms\nBit rate mode : Variable\nBit rate : 124 Kbps\nMaximum bit rate : 192 Kbps\nChannel(s) : 2 channels\nChannel positions : Front: L R\nSampling rate : 48.0 KHz\nCompression mode : Lossy\nStream size : 68.4 MiB (2%)\nLanguage : English\nEncoded date : UTC 2015-02-11 03:41:44\nTagged date : UTC 2015-02-11 03:47:38\n\nAudio #2\nID : 3\nFormat : AC-3\nFormat/Info : Audio Coding 3\nMode extension : CM (complete main)\nFormat settings, Endianness : Big\nCodec ID : ac-3\nDuration : 1h 17mn\nDuration_LastFrame : -1ms\nBit rate mode : Constant\nBit rate : 384 Kbps\nChannel(s) : 6 channels\nChannel positions : Front: L C R, Side: L R, LFE\nSampling rate : 48.0 KHz\nBit depth : 16 bits\nCompression mode : Lossy\nStream size : 211 MiB (7%)\nLanguage : English\nEncoded date : UTC 2015-02-11 03:41:44\nTagged date : UTC 2015-02-11 03:47:38\n\nText\nID : 4-CC1\nFormat : EIA-608\nMuxing mode : Final Cut\nCodec ID : c608\nDuration : 1h 15mn\nBit rate mode : Constant\nStream size : 0.00 Byte (0%)\nLanguage : English\nEncoded date : UTC 2015-02-11 03:41:44\nTagged date : UTC 2015-02-11 03:46:04\n\n\n\n\n &lt;a href=&quot;\nhttp://s26.postimg.org/47bn3ptx5/image.jpg&quot; rel=&quot;nofollow&quot; target=&quot;_NEW&quot;&gt;\nhttp://s26.postimg.org/47bn3ptx5/image.jpg&lt;/a&gt;\n\n\n\n &lt;a href=&quot;\nhttp://s26.postimg.org/sccclfe7t/image.jpg&quot; rel=&quot;nofollow&quot; target=&quot;_NEW&quot;&gt;\nhttp://s26.postimg.org/sccclfe7t/image.jpg&lt;/a&gt;","torrent":{"xt":"urn:btih:4e9ce2ca6a0f4211b8898751f0964b75b92c059d","amp;dn":"Gallipoli+TV+MINI+SERIES+%282015%29+The+First+Day+1080P+WEB-DL","amp;tr":["udp%3A%2F%2Ftracker.openbittorrent.com%3A80","udp%3A%2F%2Fopen.demonii.com%3A1337","udp%3A%2F%2Ftracker.coppersurfer.tk%3A6969","udp%3A%2F%2Fexodus.desync.com%3A6969"],"infoHash":"4e9ce2ca6a0f4211b8898751f0964b75b92c059d","infoHashBuffer":{"type":"Buffer","data":[78,156,226,202,106,15,66,17,184,137,135,81,240,150,75,117,185,44,5,157]},"announce":[],"urlList":[]}}